<?xml version="1.0" encoding="UTF-8"?>
<svg version="1.1" xmlns="http://www.w3.org/2000/svg" width="578" height="716">
<path d="M0 0 C2.92422783 1.20378049 5.00806343 3.00934637 7.45703125 5.0078125 C25.43981591 19.05422139 45.25336186 20.03346534 67.32348633 20.0246582 C68.91666255 20.02769724 70.5098379 20.03122072 72.10301208 20.03518677 C75.51099045 20.0430185 78.91895863 20.04819881 82.32694435 20.05147743 C87.72985074 20.05743985 93.13269307 20.07402815 98.53556824 20.09281921 C100.3931894 20.09915496 102.25081059 20.1054806 104.10843182 20.11179638 C105.50299211 20.1165451 105.50299211 20.1165451 106.92572534 20.12138975 C119.48505908 20.16329759 132.04436066 20.19643657 144.60375977 20.20874023 C153.10253507 20.2171509 161.60114877 20.23974545 170.0998432 20.2780959 C174.58437125 20.29774243 179.0686584 20.31029907 183.55323219 20.30526161 C187.77487078 20.30057619 191.99605312 20.31463011 196.21759987 20.34227371 C197.75451153 20.34911845 199.29147107 20.34938576 200.82838058 20.34207344 C214.0928641 20.28540272 226.58998896 22.33898194 238.45703125 28.6328125 C239.12307373 28.97787842 239.78911621 29.32294434 240.4753418 29.6784668 C246.27592265 32.77750362 251.30476482 36.41965041 256.14453125 40.8828125 C257.046875 41.69363281 257.94921875 42.50445312 258.87890625 43.33984375 C274.67416017 58.24061506 284.57789682 78.5851764 285.38183594 100.46606445 C285.46995748 105.2536661 285.40705963 110.03243934 285.33203125 114.8203125 C285.27015625 120.4509375 285.20828125 126.0815625 285.14453125 131.8828125 C261.87953125 132.3778125 261.87953125 132.3778125 238.14453125 132.8828125 C237.05294622 129.6080574 237.07489007 127.3277654 237.15234375 123.88671875 C237.16910156 122.68724609 237.18585937 121.48777344 237.203125 120.25195312 C237.24678535 117.74918784 237.29863051 115.24654954 237.359375 112.74414062 C237.50577417 100.24032063 235.85528325 89.10274607 227.13671875 79.72265625 C218.75222703 71.67412848 209.66623794 69.76352179 198.23539734 69.75151062 C197.56439572 69.74939491 196.89339409 69.74727919 196.20205909 69.74509937 C193.96631372 69.73913531 191.73062537 69.74009697 189.49487305 69.7409668 C187.88612269 69.73793269 186.27737319 69.73441053 184.66862488 69.73043823 C181.20816135 69.72256457 177.74770805 69.71740993 174.28723717 69.71414757 C168.80024983 69.70821463 163.3133266 69.69164998 157.82637024 69.67280579 C155.94353394 69.66646851 154.06069759 69.66014289 152.17786121 69.65382862 C151.23493296 69.65066281 150.29200471 69.647497 149.32050288 69.64423525 C136.55376801 69.60227269 123.78706288 69.56922547 111.02026367 69.55688477 C102.39992433 69.54846673 93.77974399 69.52583611 85.15948421 69.4875291 C80.60661675 69.46788894 76.05398631 69.4553233 71.50107384 69.46036339 C67.20728389 69.46505859 62.91394113 69.45094305 58.62024117 69.42335129 C57.05837345 69.41651966 55.49645867 69.4162245 53.9345932 69.42355156 C40.03322059 69.48209567 25.88554247 67.77773664 13.51953125 60.9453125 C12.89175781 60.62369141 12.26398438 60.30207031 11.6171875 59.97070312 C8.30350177 58.23153267 5.42442774 56.33566923 2.49609375 54.00390625 C-0.56945649 51.53628431 -0.56945649 51.53628431 -3.40625 52.3359375 C-4.61861328 53.10164063 -4.61861328 53.10164063 -5.85546875 53.8828125 C-6.81839844 54.45515625 -7.78132813 55.0275 -8.7734375 55.6171875 C-9.85238281 56.28234375 -10.93132812 56.9475 -12.04296875 57.6328125 C-17.58280815 60.91732306 -23.18081142 63.30120207 -29.29296875 65.3203125 C-30.03764404 65.5668457 -30.78231934 65.81337891 -31.54956055 66.06738281 C-38.27306303 68.18765745 -44.7802479 69.00563997 -51.84257507 69.02084351 C-52.84340023 69.02507543 -52.84340023 69.02507543 -53.86444408 69.02939284 C-56.08110957 69.03766875 -58.29772467 69.03907102 -60.5144043 69.04052734 C-62.111711 69.0452008 -63.70901639 69.05034523 -65.30632019 69.05592346 C-68.73785463 69.06716955 -72.16938056 69.07562053 -75.60092735 69.08204269 C-81.03621484 69.09276583 -86.47144103 69.11302258 -91.9066925 69.13516235 C-107.35988551 69.19694024 -122.81307444 69.25104718 -138.26635742 69.28417969 C-146.80752957 69.30257216 -155.34859839 69.33156459 -163.88969451 69.3721844 C-168.40266698 69.39317423 -172.91550972 69.40870026 -177.42853355 69.41099167 C-181.67793777 69.41315192 -185.92707178 69.4291604 -190.17639351 69.45538139 C-191.72746156 69.46252326 -193.27856253 69.46470047 -194.82964325 69.46127892 C-208.57094701 69.43582959 -220.9901882 70.49489321 -231.37890625 80.32421875 C-239.10737614 88.91921405 -240.0454288 97.95267977 -240.48046875 109.0078125 C-240.53203125 110.09835937 -240.58359375 111.18890625 -240.63671875 112.3125 C-240.68054688 113.39015625 -240.724375 114.4678125 -240.76953125 115.578125 C-240.81029785 116.54766113 -240.85106445 117.51719727 -240.89306641 118.51611328 C-240.84316224 122.9848049 -240.30014791 127.43602089 -239.85546875 131.8828125 C-256.02546875 132.2128125 -272.19546875 132.5428125 -288.85546875 132.8828125 C-288.91734375 126.9015625 -288.97921875 120.9203125 -289.04296875 114.7578125 C-289.07028076 112.90140137 -289.09759277 111.04499023 -289.12573242 109.13232422 C-289.33247968 85.01365739 -281.95589056 64.0634658 -265.85546875 45.8828125 C-265.30246094 45.24601562 -264.74945313 44.60921875 -264.1796875 43.953125 C-252.08231596 30.92518642 -233.78918093 21.91284582 -216.07998085 20.60371399 C-211.74221112 20.46051576 -207.40519926 20.47990856 -203.06567383 20.49804688 C-201.4067752 20.49393291 -199.74787946 20.48846719 -198.08898926 20.48176575 C-194.53855128 20.47010951 -190.98826846 20.46753176 -187.43781471 20.47212219 C-181.80747815 20.47898263 -176.17734231 20.46297598 -170.54704285 20.44372559 C-158.5873622 20.40599412 -146.62769976 20.3930978 -134.66796875 20.3828125 C-121.76911471 20.37170787 -108.87035472 20.35612862 -95.97156447 20.31209993 C-90.39147695 20.29389514 -84.81162258 20.28979665 -79.23151267 20.29703522 C-75.73876882 20.29857287 -72.2461383 20.28767472 -68.7534256 20.27365685 C-67.15284087 20.26970367 -65.55223368 20.27069278 -63.95165825 20.27742958 C-44.11990743 20.35438697 -21.14908725 17.91954948 -6.23828125 3.296875 C-5.78195312 2.83023438 -5.325625 2.36359375 -4.85546875 1.8828125 C-1.85546875 -0.1171875 -1.85546875 -0.1171875 0 0 Z " fill="#70B0D7" transform="translate(290.85546875,219.1171875)"/>
<path d="M0 0 C0.66 0 1.32 0 2 0 C3.296875 1.72265625 3.296875 1.72265625 4.75 4.0625 C15.89831118 21.19935243 32.63427514 32.24688229 52.55143738 36.55142212 C57.27399721 37.16571744 61.9349733 37.15275086 66.69262695 37.15771484 C68.29158058 37.16533592 68.29158058 37.16533592 69.9228363 37.17311096 C72.23412066 37.18379376 74.54541523 37.1924221 76.85671425 37.19923019 C80.52905695 37.21106895 84.20128467 37.23053823 87.87358093 37.25234985 C98.31419983 37.31377282 108.754808 37.36781962 119.19555664 37.40136719 C125.5892584 37.42245985 131.98275163 37.45788427 138.37633324 37.50212479 C140.79887606 37.51617614 143.22145579 37.52498232 145.64403725 37.52817917 C174.83529983 37.5707513 199.43596114 42.0270593 221.14453125 63.0546875 C237.00609945 79.04892188 244.45427128 98.75090156 244.38200378 120.96221924 C244.35136976 123.6418592 244.30130193 126.32068427 244.25 129 C244.22987445 130.85414705 244.21163455 132.70831556 244.1953125 134.5625 C244.15186483 139.04221079 244.08318406 143.52085819 244 148 C244.66 148.33 245.32 148.66 246 149 C241.13559103 150.26054036 236.34634948 150.14415808 231.359375 150.1328125 C229.97519379 150.13424759 229.97519379 150.13424759 228.56304932 150.13571167 C226.61983166 150.13639038 224.6766117 150.13455767 222.73339844 150.13037109 C219.74669371 150.12499405 216.76013771 150.13033901 213.7734375 150.13671875 C211.88541633 150.13605839 209.99739526 150.13477811 208.109375 150.1328125 C207.21152283 150.13483673 206.31367065 150.13686096 205.38861084 150.13894653 C199.11496623 150.11496623 199.11496623 150.11496623 198 149 C197.95171645 145.95210103 197.95874648 142.92194596 198 139.875 C198.74018675 117.84137371 198.74018675 117.84137371 189 99 C189 98.34 189 97.68 189 97 C188.14921875 96.58427734 188.14921875 96.58427734 187.28125 96.16015625 C184.19605656 94.5911452 181.21613865 92.85075124 178.21875 91.12109375 C174.58448533 89.28476635 171.35479975 88.87412015 167.30981445 88.84851074 C166.37085831 88.84016708 165.43190216 88.83182343 164.4644928 88.82322693 C162.92939308 88.8169503 162.92939308 88.8169503 161.36328125 88.81054688 C159.73808815 88.79810692 159.73808815 88.79810692 158.08006287 88.78541565 C155.72563131 88.76801486 153.37118244 88.75284812 151.01672363 88.73963928 C147.28291364 88.71858315 143.54918908 88.69155765 139.81542969 88.66296387 C131.87698614 88.60326246 123.93850168 88.55116741 116 88.5 C106.82640935 88.44072145 97.65285612 88.37809204 88.4793396 88.30812073 C84.81477182 88.2817167 81.15019959 88.26079277 77.4855957 88.2401123 C75.21435352 88.22348965 72.94311316 88.20661613 70.671875 88.18945312 C69.66466904 88.18526871 68.65746307 88.18108429 67.61973572 88.17677307 C60.70830868 88.11679834 53.87949923 87.6588232 47 87 C47 86.34 47 85.68 47 85 C45.96875 84.95875 44.9375 84.9175 43.875 84.875 C29.88372448 83.11368695 15.05108084 73.4950636 5 64 C5 63.34 5 62.68 5 62 C4.401875 61.71125 3.80375 61.4225 3.1875 61.125 C1 60 1 60 -2 58 C-2.36609375 58.40089844 -2.7321875 58.80179687 -3.109375 59.21484375 C-20.56459499 77.54282474 -44.21025091 87.54841703 -69.42785645 88.18377686 C-74.80052274 88.2666844 -80.17288862 88.27761365 -85.54611969 88.27439499 C-89.14582696 88.27341915 -92.74524423 88.28649347 -96.34490967 88.30337524 C-106.56911057 88.34934757 -116.79327715 88.37426513 -127.01757812 88.38085938 C-133.29730569 88.38588339 -139.57672361 88.41016613 -145.85634613 88.44618607 C-148.23723235 88.45595077 -150.61816129 88.45833431 -152.99906158 88.45301437 C-156.32946311 88.44591555 -159.65894329 88.46328106 -162.98925781 88.48583984 C-163.95989166 88.47766739 -164.93052551 88.46949493 -165.93057251 88.46107483 C-176.04007746 88.58231888 -183.78343334 91.90986873 -191.08984375 98.85546875 C-197.49116905 106.04223273 -199.32779337 114.97797011 -199.1953125 124.33984375 C-199.19106766 125.49027916 -199.19106766 125.49027916 -199.18673706 126.66395569 C-199.17563475 129.08863621 -199.15054967 131.51293309 -199.125 133.9375 C-199.1149573 135.5917915 -199.10583372 137.24608885 -199.09765625 138.90039062 C-199.07572817 142.93373923 -199.04126843 146.9668048 -199 151 C-199.66 151 -200.32 151 -201 151 C-201 150.34 -201 149.68 -201 149 C-201.86049454 149.24300591 -201.86049454 149.24300591 -202.7383728 149.49092102 C-204.96944049 149.99312123 -206.90400815 150.13307126 -209.18603516 150.14526367 C-210.00012848 150.15164352 -210.8142218 150.15802338 -211.65298462 150.16459656 C-212.52289032 150.16570938 -213.39279602 150.1668222 -214.2890625 150.16796875 C-215.1886972 150.17129715 -216.08833191 150.17462555 -217.01522827 150.17805481 C-218.91314178 150.18310984 -220.81106414 150.18546358 -222.70898438 150.18530273 C-225.62124064 150.18749717 -228.53312283 150.20568948 -231.4453125 150.22460938 C-233.2890612 150.22754193 -235.13281171 150.22952765 -236.9765625 150.23046875 C-238.28749374 150.24124702 -238.28749374 150.24124702 -239.62490845 150.25224304 C-245.77116624 150.22883376 -245.77116624 150.22883376 -248 148 C-248.1543447 145.395291 -248.18572571 142.90972607 -248.1171875 140.30859375 C-248.10164825 139.53048843 -248.08610901 138.75238312 -248.07009888 137.95069885 C-248.03319911 136.29195618 -247.99078558 134.6333286 -247.94335938 132.97485352 C-247.87666883 130.4994434 -247.8394877 128.02486248 -247.8046875 125.54882812 C-247.51154483 111.8277378 -245.93630035 97.78073935 -239.1875 85.5625 C-238.83913086 84.90475586 -238.49076172 84.24701172 -238.13183594 83.56933594 C-227.56086911 63.99525269 -211.34341479 49.01323073 -190 42 C-185.69466489 40.83161943 -181.38039077 39.84194524 -177 39 C-175.7617598 38.73900261 -175.7617598 38.73900261 -174.49850464 38.47273254 C-169.662314 37.81924629 -164.89093281 37.85564863 -160.01611328 37.8581543 C-158.37085915 37.85294266 -158.37085915 37.85294266 -156.69236755 37.84762573 C-154.31396107 37.840285 -151.93554781 37.83493067 -149.55713272 37.83133507 C-145.78004739 37.82414207 -142.0030899 37.8084518 -138.2260437 37.78999329 C-127.48762395 37.7376742 -116.74928527 37.68918484 -106.01074219 37.67407227 C-99.43547584 37.66472414 -92.86047641 37.63445132 -86.28533554 37.59275246 C-83.79218871 37.5805203 -81.2989963 37.5753068 -78.80582047 37.57755089 C-62.80284794 37.58840557 -48.54337468 37.34141731 -34 30 C-33.34 30 -32.68 30 -32 30 C-31.67 29.34 -31.34 28.68 -31 28 C-29.73075158 27.29158228 -28.43337985 26.63323722 -27.125 26 C-17.55277091 20.80364707 -10.42252485 12.70968806 -3.77734375 4.25 C-2 2 -2 2 0 0 Z " fill="#70B0D8" transform="translate(290,326)"/>
<path d="M0 0 C2.02844287 -0.01718404 4.05524251 -0.06106773 6.08325195 -0.10522461 C7.36651367 -0.11360352 8.64977539 -0.12198242 9.97192383 -0.13061523 C11.73596558 -0.15248901 11.73596558 -0.15248901 13.53564453 -0.17480469 C17.39693639 0.3926422 18.99484664 1.56374069 21.73364258 4.29516602 C22.95758653 6.72210623 23.90051834 8.93925714 24.79614258 11.48266602 C25.08448975 12.26053467 25.37283691 13.03840332 25.66992188 13.83984375 C26.70712569 16.6526853 27.71999408 19.47375402 28.73364258 22.29516602 C29.56068225 24.56379114 30.38888062 26.83199407 31.21801758 29.09985352 C32.93528402 33.80272769 34.64467169 38.50839041 36.34848022 43.21615601 C40.36158295 54.30167408 44.42971203 65.36670416 48.50189209 76.43063354 C54.44579727 92.58113334 60.36184319 108.74059803 66.19070435 124.9329834 C70.62665777 137.25470403 75.10695009 149.55981147 79.60864258 161.85766602 C79.9161142 162.6978125 80.22358582 163.53795898 80.54037476 164.40356445 C81.14108964 166.04466001 81.74200357 167.68568273 82.34312439 169.32662964 C82.92684774 170.92029761 83.51007747 172.51414649 84.0927887 174.10818481 C85.62261288 178.2877411 87.16828315 182.4606864 88.73461914 186.62670898 C89.06011749 187.4969017 89.38561584 188.36709442 89.72097778 189.26365662 C90.34571454 190.93239097 90.97433776 192.59967701 91.60739136 194.26527405 C93.73364258 199.95887673 93.73364258 199.95887673 93.73364258 203.29516602 C88.84075093 203.41906082 83.9487783 203.50964111 79.0546875 203.56982422 C77.39111419 203.59491949 75.72765062 203.62900398 74.06445312 203.67236328 C71.66875105 203.73324061 69.27451007 203.7614237 66.87817383 203.78344727 C65.76851006 203.82215691 65.76851006 203.82215691 64.63642883 203.86164856 C60.81517525 203.86370913 58.95115764 203.45923484 55.87207031 201.13671875 C53.66239025 198.20048559 52.50914459 195.825165 51.37426758 192.34204102 C50.9861792 191.18019287 50.59809082 190.01834473 50.19824219 188.82128906 C49.79742432 187.57516846 49.39660645 186.32904785 48.98364258 185.04516602 C48.54478172 183.72140279 48.10407709 182.39824952 47.66162109 181.07568359 C46.98705637 179.05906063 46.31339893 177.0422013 45.64503479 175.02351379 C43.75142174 169.30610469 41.73574706 163.64008956 39.67114258 157.98266602 C35.14551275 145.50646349 30.72181355 132.99459457 26.29614258 120.48266602 C21.17409073 106.00389993 16.04338877 91.52856374 10.86914062 77.06835938 C7.7987031 68.48615164 4.75570161 59.89452097 1.73364258 51.29516602 C-0.04890094 53.9689813 -0.9612565 55.96957636 -1.98706055 58.96484375 C-2.47952271 60.39208519 -2.47952271 60.39208519 -2.98193359 61.84815979 C-3.33360596 62.88125778 -3.68527832 63.91435577 -4.04760742 64.97875977 C-4.41732666 66.05314804 -4.7870459 67.12753632 -5.16796875 68.23448181 C-6.37114249 71.73261379 -7.56866664 75.23265345 -8.76635742 78.73266602 C-10.40994892 83.51599067 -12.0566784 88.29823199 -13.70385742 93.08032227 C-14.10568237 94.24797119 -14.50750732 95.41562012 -14.92150879 96.61865234 C-17.80682483 104.99272062 -20.75351958 113.34118398 -23.76635742 121.67016602 C-27.02924109 130.71012753 -30.12670935 139.79447264 -33.14135742 148.92016602 C-36.64054214 159.50308321 -40.21752588 170.05529569 -43.90435791 180.57440186 C-44.43278867 182.08352974 -44.95931268 183.59332679 -45.48382568 185.1038208 C-46.21687378 187.21260623 -46.95731765 189.31864629 -47.69995117 191.42407227 C-48.12332764 192.63135986 -48.5467041 193.83864746 -48.98291016 195.08251953 C-51.41987898 201.18259044 -51.41987898 201.18259044 -53.26635742 203.29516602 C-56.11920021 203.75087604 -58.37152713 203.88129408 -61.21557617 203.78344727 C-61.9881929 203.77637253 -62.76080963 203.76929779 -63.55683899 203.76200867 C-66.02349884 203.73402857 -68.48788446 203.67129009 -70.95385742 203.60766602 C-72.62635067 203.58258752 -74.29887951 203.55977355 -75.97143555 203.53930664 C-80.07061851 203.48419092 -84.16810249 203.39789898 -88.26635742 203.29516602 C-87.65063256 198.71163005 -86.44311212 194.72650566 -84.78979492 190.41235352 C-84.54145905 189.75800323 -84.29312317 189.10365295 -84.03726196 188.42947388 C-83.24385543 186.34100017 -82.4431581 184.25542984 -81.64135742 182.17016602 C-77.93828076 172.49829912 -74.361463 162.79817705 -70.96435547 153.01423645 C-67.94823596 144.34128965 -64.79891426 135.71871559 -61.64309692 127.0958252 C-56.10126975 111.94777031 -50.64309589 96.77455547 -45.32885742 81.54516602 C-41.56023911 70.74954318 -37.73144054 59.98815265 -33.65844727 49.30249023 C-31.4356977 43.46050458 -29.28862335 37.59602873 -27.18823242 31.70922852 C-26.64736755 30.19911252 -26.10643315 28.68902143 -25.56542969 27.17895508 C-24.76565221 24.94586837 -23.96859685 22.71201606 -23.18063354 20.47473145 C-22.44950235 18.39920501 -21.70841908 16.32746193 -20.96557617 14.25610352 C-20.54107178 13.05775879 -20.11656738 11.85941406 -19.67919922 10.62475586 C-15.07361971 -0.22903598 -10.95089264 0.06465764 0 0 Z " fill="#6FAFD6" transform="translate(306.266357421875,1.704833984375)"/>
<path d="M0 0 C1 2 1 2 -0.01635742 5.25292969 C-0.53759768 6.64577479 -1.06798578 8.03521681 -1.60546875 9.421875 C-2.02618401 10.52828339 -2.02618401 10.52828339 -2.45539856 11.65704346 C-3.05283055 13.22202913 -3.65415893 14.78553197 -4.2590332 16.34765625 C-5.17683686 18.72240985 -6.07851721 21.10282554 -6.97851562 23.484375 C-7.56153185 25.00557974 -8.14548724 26.52642493 -8.73046875 28.046875 C-8.99731979 28.75334167 -9.26417084 29.45980835 -9.53910828 30.18768311 C-11.9449831 36.34687731 -14.49805449 41.6425697 -20.484375 44.9609375 C-21.36544922 45.4569043 -22.24652344 45.95287109 -23.15429688 46.46386719 C-24.56291992 47.22425293 -24.56291992 47.22425293 -26 48 C-26.95455078 48.5249707 -27.90910156 49.04994141 -28.89257812 49.59082031 C-32.00210506 51.28738631 -35.12419718 52.95862633 -38.25 54.625 C-40.56276099 55.86409633 -42.8752568 57.10368771 -45.1875 58.34375 C-46.90839844 59.26607422 -46.90839844 59.26607422 -48.6640625 60.20703125 C-53.53710928 62.82615124 -58.39522129 65.47220705 -63.25 68.125 C-64.1251123 68.60308105 -65.00022461 69.08116211 -65.90185547 69.57373047 C-67.67393252 70.54212671 -69.44590478 71.51071471 -71.21777344 72.47949219 C-76.26835654 75.23967397 -81.32189861 77.99443209 -86.375 80.75 C-88.23699105 81.76560321 -90.09897138 82.78122608 -91.9609375 83.796875 C-93.30729167 84.53125 -94.65364583 85.265625 -96 86 C-96 86.66 -96 87.32 -96 88 C-95.23671387 88.39155273 -94.47342773 88.78310547 -93.68701172 89.18652344 C-78.01928814 97.23293642 -62.42162514 105.37242617 -47.01342773 113.90942383 C-45.02887785 114.98435827 -43.0239986 116.00165666 -41 117 C-40.34 117.33 -39.68 117.66 -39 118 C-39.61034757 121.48576282 -40.51608461 124.5871923 -41.84765625 127.86328125 C-42.38422852 129.19262695 -42.38422852 129.19262695 -42.93164062 130.54882812 C-43.49141602 131.9168457 -43.49141602 131.9168457 -44.0625 133.3125 C-44.43955078 134.24384766 -44.81660156 135.17519531 -45.20507812 136.13476562 C-46.13283125 138.42478917 -47.06458001 140.71309996 -48 143 C-52.84056729 142.44742383 -56.66906968 140.92305596 -60.9375 138.6875 C-61.6186084 138.33921143 -62.2997168 137.99092285 -63.00146484 137.63208008 C-65.33986526 136.43181854 -67.67054704 135.21753233 -70 134 C-70.86931152 133.54625 -71.73862305 133.0925 -72.63427734 132.625 C-76.43578878 130.63960889 -80.2367372 128.6531673 -84.03515625 126.66186523 C-94.28593391 121.29941018 -104.63317436 116.13369734 -115 111 C-115.99 111.99 -115.99 111.99 -117 113 C-117.05414063 112.401875 -117.10828125 111.80375 -117.1640625 111.1875 C-118.38944436 107.98089327 -120.33778819 107.46678995 -123.375 106 C-127.28789129 104.10033774 -129.72034143 102.73670932 -132 99 C-132.61597353 95.20999489 -132.46361909 91.39725719 -132.4375 87.5625 C-132.45748047 86.52544922 -132.47746094 85.48839844 -132.49804688 84.41992188 C-132.49740234 83.41638672 -132.49675781 82.41285156 -132.49609375 81.37890625 C-132.49794678 80.4669751 -132.4997998 79.55504395 -132.50170898 78.61547852 C-131.82645772 75.0953 -130.50859855 73.54487619 -128 71 C-125.07421875 69.07470703 -125.07421875 69.07470703 -121.6875 67.2578125 C-121.07793457 66.92635223 -120.46836914 66.59489197 -119.84033203 66.25338745 C-117.8989198 65.20027282 -115.94996631 64.16217493 -114 63.125 C-112.08803726 62.09600407 -110.17778093 61.06389917 -108.26782227 60.03118896 C-107.00463313 59.34823101 -105.74079603 58.66647018 -104.47631836 57.98590088 C-99.52927344 55.31476076 -94.67524838 52.5013063 -89.83105469 49.64770508 C-85.27575989 46.99647322 -80.64151173 44.49626823 -76 42 C-75.09572266 41.51257324 -74.19144531 41.02514648 -73.25976562 40.52294922 C-71.39688497 39.5190781 -69.53384571 38.51550125 -67.6706543 37.51220703 C-57.68647889 32.12911488 -47.76650371 26.64734468 -37.90454102 21.04370117 C-30.02335451 16.56792383 -22.1113486 12.14963278 -14.1875 7.75 C-13.28951187 7.25104218 -13.28951187 7.25104218 -12.37338257 6.74200439 C-2.37602013 1.18801007 -2.37602013 1.18801007 0 0 Z " fill="#6FAFD6" transform="translate(250,2)"/>
<path d="M0 0 C1.20438545 3.61315636 0.64679232 4.77681676 -0.39453125 8.38671875 C-2.68625017 17.78185329 -2.56583004 27.1848228 -2.6875 36.8125 C-2.790625 43.144375 -2.89375 49.47625 -3 56 C11.52 56 26.04 56 41 56 C40.88195883 45.58984394 40.88195883 45.58984394 40.72973633 35.18017578 C40.64147523 19.68987858 40.64147523 19.68987858 44 13 C44.66 12.67 45.32 12.34 46 12 C45.67841919 12.98178223 45.67841919 12.98178223 45.3503418 13.98339844 C42.58218704 23.47651721 42.65371088 32.46898951 42.8125 42.25 C42.82758544 43.88149796 42.84126696 45.51300953 42.85351562 47.14453125 C42.8861898 51.09669732 42.93775426 55.04819362 43 59 C42.34 59 41.68 59 41 59 C41 58.34 41 57.68 41 57 C40.42633698 57.16200394 39.85267395 57.32400787 39.2616272 57.49092102 C37.03055951 57.99312123 35.09599185 58.13307126 32.81396484 58.14526367 C31.59282486 58.15483345 31.59282486 58.15483345 30.34701538 58.16459656 C29.47710968 58.16570938 28.60720398 58.1668222 27.7109375 58.16796875 C26.8113028 58.17129715 25.91166809 58.17462555 24.98477173 58.17805481 C23.08685822 58.18310984 21.18893586 58.18546358 19.29101562 58.18530273 C16.37875936 58.18749717 13.46687717 58.20568948 10.5546875 58.22460938 C8.7109388 58.22754193 6.86718829 58.22952765 5.0234375 58.23046875 C3.71250626 58.24124702 3.71250626 58.24124702 2.37509155 58.25224304 C-3.77116624 58.22883376 -3.77116624 58.22883376 -6 56 C-6.1543447 53.395291 -6.18572571 50.90972607 -6.1171875 48.30859375 C-6.10164825 47.53048843 -6.08610901 46.75238312 -6.07009888 45.95069885 C-6.03319911 44.29195618 -5.99078558 42.6333286 -5.94335938 40.97485352 C-5.87666883 38.4994434 -5.8394877 36.02486248 -5.8046875 33.54882812 C-5.56679325 22.5518011 -5.01728375 10.0345675 0 0 Z " fill="#5B8AA7" transform="translate(48,418)"/>
<path d="M0 0 C10.22862568 9.19679063 14.42092254 25.86696258 16 39 C16.12287162 41.85423067 16.11736438 44.70215677 16.09765625 47.55859375 C16.09664917 48.2592395 16.09564209 48.95988525 16.09460449 49.6817627 C16.08942304 52.26702542 16.07546231 54.85226458 16.0625 57.4375 C16.041875 63.233125 16.02125 69.02875 16 75 C0.49 75.33 -15.02 75.66 -31 76 C-34.36787574 65.89637279 -31.61824968 52.55440517 -31 42 C-30.67 42 -30.34 42 -30 42 C-30 52.56 -30 63.12 -30 74 C-15.48 74 -0.96 74 14 74 C13.9175 67.895 13.835 61.79 13.75 55.5 C13.72631348 52.66438477 13.72631348 52.66438477 13.70214844 49.77148438 C13.49242433 36.27029948 11.96355678 23.34314664 5.375 11.3125 C3.3688339 7.5848857 1.4867146 3.9670256 0 0 Z " fill="#5383A0" transform="translate(560,276)"/>
<path d="M0 0 C3.06758509 2.56675488 4.15620283 5.36380619 5.5625 9.0625 C5.97628906 10.12597656 6.39007812 11.18945312 6.81640625 12.28515625 C9.30428838 20.09365759 10.29780004 27.55205662 10.1953125 35.7265625 C10.1924826 36.60025482 10.18965271 37.47394714 10.18673706 38.37411499 C10.17567303 41.12455814 10.15059581 43.87465774 10.125 46.625 C10.11495234 48.50650567 10.10582964 50.38801651 10.09765625 52.26953125 C10.07577912 56.84648357 10.04134719 61.42318385 10 66 C10.99 66.495 10.99 66.495 12 67 C7.13559103 68.26054036 2.34634948 68.14415808 -2.640625 68.1328125 C-4.02480621 68.13424759 -4.02480621 68.13424759 -5.43695068 68.13571167 C-7.38016834 68.13639038 -9.3233883 68.13455767 -11.26660156 68.13037109 C-14.25330629 68.12499405 -17.23986229 68.13033901 -20.2265625 68.13671875 C-22.11458367 68.13605839 -24.00260474 68.13477811 -25.890625 68.1328125 C-26.78847717 68.13483673 -27.68632935 68.13686096 -28.61138916 68.13894653 C-34.88503377 68.11496623 -34.88503377 68.11496623 -36 67 C-36.1019939 64.19816748 -36.14068056 61.42677924 -36.125 58.625 C-36.12306641 57.81240723 -36.12113281 56.99981445 -36.11914062 56.16259766 C-36.07559048 50.06920684 -35.74641396 44.05128461 -35 38 C-34.67 38 -34.34 38 -34 38 C-34 47.24 -34 56.48 -34 66 C-19.81 66 -5.62 66 9 66 C8.87625 60.864375 8.7525 55.72875 8.625 50.4375 C8.59100098 48.85122803 8.55700195 47.26495605 8.52197266 45.63061523 C8.03715151 27.61586039 8.03715151 27.61586039 3.4375 10.3125 C0.71816315 3.31646127 0.71816315 3.31646127 0 0 Z " fill="#5585A1" transform="translate(524,408)"/>
<path d="M0 0 C1 2 1 2 0.44799805 3.74560547 C0.15965088 4.48697754 -0.12869629 5.22834961 -0.42578125 5.9921875 C-2.91390356 13.86298078 -2.31856749 21.96419433 -2.1875 30.125 C-2.17242322 31.76561269 -2.15874012 33.40623881 -2.14648438 35.046875 C-2.1137217 39.03158667 -2.0621063 43.01564209 -2 47 C-2.66 47 -3.32 47 -4 47 C-4 46.34 -4 45.68 -4 45 C-10.6 45 -17.2 45 -24 45 C-24 44.67 -24 44.34 -24 44 C-17.4 44 -10.8 44 -4 44 C-4.03480469 41.73382813 -4.06960937 39.46765625 -4.10546875 37.1328125 C-4.12895452 34.90528621 -4.14711946 32.67777442 -4.16479492 30.45019531 C-4.17975744 28.91790457 -4.20013497 27.38565571 -4.22631836 25.85351562 C-4.50847792 8.90181207 -4.50847792 8.90181207 -1 1 C-0.67 0.67 -0.34 0.34 0 0 Z " fill="#4E7C97" transform="translate(93,430)"/>
<path d="M0 0 C2.1003418 0.43237305 2.1003418 0.43237305 4 1 C1.46258085 3.56673522 -1.08069115 6.12759557 -3.625 8.6875 C-4.33785156 9.40873047 -5.05070312 10.12996094 -5.78515625 10.87304688 C-9.70445473 14.81032379 -13.6605938 18.52984393 -18 22 C-15.8895553 15.72449777 -11.46885978 11.72526977 -7 7 C-6.33742188 6.26136719 -5.67484375 5.52273438 -4.9921875 4.76171875 C-4.09886719 3.79685547 -4.09886719 3.79685547 -3.1875 2.8125 C-2.66542969 2.24144531 -2.14335938 1.67039062 -1.60546875 1.08203125 C-1.07566406 0.72496094 -0.54585937 0.36789062 0 0 Z " fill="#67A0C3" transform="translate(74,382)"/>
<path d="M0 0 C0.66 0.33 1.32 0.66 2 1 C0.02 2.32 -1.96 3.64 -4 5 C-1.68920049 6.31556957 0.6232076 7.62809419 2.9375 8.9375 C3.64592041 9.338479 4.35434082 9.73945801 5.08422852 10.15258789 C11.21096697 13.5995915 17.41505899 16.88616469 23.67749023 20.07983398 C28.89159713 22.78319426 28.89159713 22.78319426 30 25 C26.60738483 23.68404907 23.34111182 22.23473825 20.0859375 20.609375 C18.70365967 19.91968628 18.70365967 19.91968628 17.29345703 19.21606445 C16.33036621 18.73226318 15.36727539 18.24846191 14.375 17.75 C13.39257324 17.25781982 12.41014648 16.76563965 11.39794922 16.25854492 C4.85711069 12.968604 -1.62985115 9.61178296 -8 6 C-8 5.34 -8 4.68 -8 4 C-6.71349294 3.30289269 -5.42059335 2.61757124 -4.125 1.9375 C-3.40570313 1.55464844 -2.68640625 1.17179687 -1.9453125 0.77734375 C-1.30335938 0.52082031 -0.66140625 0.26429687 0 0 Z " fill="#5689A8" transform="translate(157,84)"/>
<path d="M0 0 C0.84884766 0.37318359 0.84884766 0.37318359 1.71484375 0.75390625 C1.14636719 1.31078125 0.57789063 1.86765625 -0.0078125 2.44140625 C-4.99368911 7.36901719 -9.75310679 12.40579644 -14.28515625 17.75390625 C-14.28515625 10.62142039 -9.18569481 6.24939054 -4.5390625 1.4140625 C-2.28515625 -0.24609375 -2.28515625 -0.24609375 0 0 Z " fill="#6CA7CB" transform="translate(34.28515625,258.24609375)"/>
<path d="M0 0 C5.09882455 1.5280389 9.65665659 3.71036856 14.375 6.125 C15.11105469 6.49753906 15.84710938 6.87007812 16.60546875 7.25390625 C18.40550358 8.1656122 20.20301402 9.08229932 22 10 C16.83280039 11.72239987 12.20197971 9.04375185 7.4453125 6.7890625 C1.15826873 3.4748062 1.15826873 3.4748062 0 0 Z " fill="#6BA7CA" transform="translate(176,131)"/>
<path d="M0 0 C6.19609429 3.79163979 10.17306764 6.82752846 14 13 C11.50638429 11.79618552 9.31856917 10.54571278 7 9 C7 8.34 7 7.68 7 7 C6.401875 6.71125 5.80375 6.4225 5.1875 6.125 C3 5 3 5 0 3 C-2.31 5.31 -4.62 7.62 -7 10 C-7.66 9.67 -8.32 9.34 -9 9 C-6.03 6.03 -3.06 3.06 0 0 Z " fill="#5487A6" transform="translate(288,381)"/>
<path d="M0 0 C7.21087059 0.36978824 13.16914498 4.87776008 18 10 C17.67 10.66 17.34 11.32 17 12 C16.08476562 11.43410156 15.16953125 10.86820312 14.2265625 10.28515625 C13.02606894 9.54422663 11.82554661 8.80334364 10.625 8.0625 C9.72007812 7.50272461 9.72007812 7.50272461 8.796875 6.93164062 C5.45600369 4.86411035 5.45600369 4.86411035 2 3 C2 2.34 2 1.68 2 1 C1.34 0.67 0.68 0.34 0 0 Z " fill="#6DA8CB" transform="translate(464,413)"/>
<path d="M0 0 C1.65 0.99 3.3 1.98 5 3 C4.38965243 6.48576282 3.48391539 9.5871923 2.15234375 12.86328125 C1.79462891 13.74951172 1.43691406 14.63574219 1.06835938 15.54882812 C0.69517578 16.46083984 0.32199219 17.37285156 -0.0625 18.3125 C-0.43955078 19.24384766 -0.81660156 20.17519531 -1.20507812 21.13476562 C-2.13283125 23.42478917 -3.06458001 25.71309996 -4 28 C-4.99 27.67 -5.98 27.34 -7 27 C-6.34 27 -5.68 27 -5 27 C-4.74476563 26.21689453 -4.74476563 26.21689453 -4.484375 25.41796875 C-2.7073617 20.02076346 -0.78960753 14.6940243 1.23046875 9.3828125 C2.15366091 6.94152911 2.15366091 6.94152911 2 4 C0.56249809 2.31201173 0.56249809 2.31201173 -1 1 C-0.67 0.67 -0.34 0.34 0 0 Z " fill="#5689A8" transform="translate(206,117)"/>
<path d="M0 0 C3.48670834 1.1094072 6.77484237 2.26337666 10 4 C10 4.66 10 5.32 10 6 C15.445 7.485 15.445 7.485 21 9 C21 9.33 21 9.66 21 10 C14.25607148 9.54018669 7.88538233 7.31331843 2 4 C0.64453125 1.83203125 0.64453125 1.83203125 0 0 Z " fill="#6097B8" transform="translate(313,400)"/>
<path d="M0 0 C0 0.99 0 1.98 0 3 C-1.33333333 4.33333333 -2.66666667 5.66666667 -4 7 C-4.68753301 8.65816784 -5.35561283 10.32459336 -6 12 C-7.375 13.875 -7.375 13.875 -9 15 C-10.32 14.67 -11.64 14.34 -13 14 C-8.71 9.38 -4.42 4.76 0 0 Z " fill="#6099BC" transform="translate(286,331)"/>
<path d="M0 0 C4.55015893 1.51671964 6.50057264 5.16891053 9 9 C2.3592437 5.79411765 2.3592437 5.79411765 0.8125 2.375 C0.544375 1.59125 0.27625 0.8075 0 0 Z " fill="#629BBE" transform="translate(293,385)"/>
<path d="M0 0 C0.66 0.33 1.32 0.66 2 1 C0.02 2.32 -1.96 3.64 -4 5 C-3.67 5.66 -3.34 6.32 -3 7 C-4.65 6.67 -6.3 6.34 -8 6 C-8 5.34 -8 4.68 -8 4 C-6.71349294 3.30289269 -5.42059335 2.61757124 -4.125 1.9375 C-3.40570313 1.55464844 -2.68640625 1.17179687 -1.9453125 0.77734375 C-1.30335938 0.52082031 -0.66140625 0.26429687 0 0 Z " fill="#5C91B2" transform="translate(157,84)"/>
<path d="M0 0 C0 3.94042779 -1.46184088 5.08858219 -4 8 C-4.66 8.66 -5.32 9.32 -6 10 C-5.58578031 5.16743695 -3.53586014 3.17320782 0 0 Z " fill="#7CBEE6" transform="translate(295,3)"/>
<path d="M0 0 C4 1 4 1 4 1 Z " fill="#7AB9DB" transform="translate(245,237)"/>
<path d="M0 0 C3 1 3 1 3 1 Z " fill="#78B0D4" transform="translate(249,288)"/>
<path d="" fill="#73A7C7" transform="translate(0,0)"/>
<path d="" fill="#72A7C6" transform="translate(0,0)"/>
<path d="" fill="#73A6C6" transform="translate(0,0)"/>
<path d="M0 0 C2 1 2 1 2 1 Z " fill="#7AB1D5" transform="translate(241,412)"/>
<path d="" fill="#77B2D6" transform="translate(0,0)"/>
<path d="M0 0 C2 1 2 1 2 1 Z " fill="#78B4D9" transform="translate(102,365)"/>
<path d="" fill="#77B0D5" transform="translate(0,0)"/>
<path d="M0 0 C2 1 2 1 2 1 Z " fill="#79B3D7" transform="translate(334,133)"/>
<path d="" fill="#79B3D7" transform="translate(0,0)"/>
<path d="" fill="#78B1D4" transform="translate(0,0)"/>
<path d="" fill="#79B5D7" transform="translate(0,0)"/>
<path d="" fill="#78B2D7" transform="translate(0,0)"/>
<path d="" fill="#71A4C3" transform="translate(0,0)"/>
<path d="" fill="#565858" transform="translate(0,0)"/>
<path d="" fill="#709FBA" transform="translate(0,0)"/>
<path d="" fill="#75A7C2" transform="translate(0,0)"/>
<path d="" fill="#74A9CA" transform="translate(0,0)"/>
<path d="" fill="#74A8C7" transform="translate(0,0)"/>
<path d="" fill="#76AFD3" transform="translate(0,0)"/>
<path d="" fill="#7BB3D7" transform="translate(0,0)"/>
<path d="" fill="#78B3D9" transform="translate(0,0)"/>
<path d="" fill="#79B2D7" transform="translate(0,0)"/>
<path d="" fill="#79B1D3" transform="translate(0,0)"/>
<path d="" fill="#78B0D3" transform="translate(0,0)"/>
<path d="" fill="#79B0D2" transform="translate(0,0)"/>
<path d="" fill="#79B1D3" transform="translate(0,0)"/>
<path d="" fill="#7AB5D7" transform="translate(0,0)"/>
<path d="" fill="#75AFD1" transform="translate(0,0)"/>
<path d="" fill="#75AED4" transform="translate(0,0)"/>
<path d="" fill="#77B2D8" transform="translate(0,0)"/>
<path d="" fill="#78B3D9" transform="translate(0,0)"/>
<path d="" fill="#79B4D7" transform="translate(0,0)"/>
<path d="" fill="#7AB6DA" transform="translate(0,0)"/>
<path d="" fill="#7AB0D3" transform="translate(0,0)"/>
<path d="" fill="#78AECF" transform="translate(0,0)"/>
<path d="" fill="#78AFD3" transform="translate(0,0)"/>
<path d="" fill="#7AB1D4" transform="translate(0,0)"/>
<path d="" fill="#78AED1" transform="translate(0,0)"/>
<path d="" fill="#79B4D7" transform="translate(0,0)"/>
<path d="" fill="#73A5C4" transform="translate(0,0)"/>
<path d="" fill="#73A7C8" transform="translate(0,0)"/>
<path d="" fill="#78B0D5" transform="translate(0,0)"/>
<path d="" fill="#74A6C6" transform="translate(0,0)"/>
<path d="" fill="#76A9CB" transform="translate(0,0)"/>
<path d="" fill="#75A6C6" transform="translate(0,0)"/>
<path d="" fill="#75ACCD" transform="translate(0,0)"/>
<path d="" fill="#7AB5DB" transform="translate(0,0)"/>
<path d="" fill="#75AECF" transform="translate(0,0)"/>
<path d="" fill="#77ACCC" transform="translate(0,0)"/>
<path d="" fill="#77B5D9" transform="translate(0,0)"/>
<path d="" fill="#7AB5D9" transform="translate(0,0)"/>
<path d="" fill="#7CB4DC" transform="translate(0,0)"/>
<path d="" fill="#7BB4D9" transform="translate(0,0)"/>
<path d="" fill="#79B4D8" transform="translate(0,0)"/>
<path d="" fill="#79B5D9" transform="translate(0,0)"/>
<path d="" fill="#76B0D0" transform="translate(0,0)"/>
<path d="" fill="#74AECD" transform="translate(0,0)"/>
<path d="" fill="#79B1D0" transform="translate(0,0)"/>
<path d="" fill="#76AECF" transform="translate(0,0)"/>
<path d="" fill="#73A8CB" transform="translate(0,0)"/>
<path d="" fill="#7CB7DB" transform="translate(0,0)"/>
<path d="" fill="#7EBBDE" transform="translate(0,0)"/>
<path d="" fill="#7DBBDD" transform="translate(0,0)"/>
<path d="" fill="#7DB9DD" transform="translate(0,0)"/>
<path d="" fill="#7EBADE" transform="translate(0,0)"/>
<path d="" fill="#79B3D3" transform="translate(0,0)"/>
<path d="" fill="#79B0D2" transform="translate(0,0)"/>
<path d="" fill="#7AB5D7" transform="translate(0,0)"/>
<path d="" fill="#79B5D9" transform="translate(0,0)"/>
<path d="" fill="#7AB4D8" transform="translate(0,0)"/>
<path d="" fill="#7AB5DA" transform="translate(0,0)"/>
<path d="" fill="#7AB4D8" transform="translate(0,0)"/>
<path d="" fill="#79B2D6" transform="translate(0,0)"/>
<path d="" fill="#78B4DA" transform="translate(0,0)"/>
<path d="" fill="#79B1D3" transform="translate(0,0)"/>
<path d="" fill="#76AED1" transform="translate(0,0)"/>
<path d="" fill="#78B1D3" transform="translate(0,0)"/>
<path d="" fill="#72AACC" transform="translate(0,0)"/>
<path d="" fill="#76B2D4" transform="translate(0,0)"/>
<path d="" fill="#79B4DA" transform="translate(0,0)"/>
<path d="" fill="#77B3D9" transform="translate(0,0)"/>
<path d="" fill="#78B0D3" transform="translate(0,0)"/>
<path d="" fill="#78B2D6" transform="translate(0,0)"/>
<path d="" fill="#78B3D8" transform="translate(0,0)"/>
<path d="" fill="#79B5D9" transform="translate(0,0)"/>
<path d="" fill="#75AFD3" transform="translate(0,0)"/>
<path d="" fill="#78B4D8" transform="translate(0,0)"/>
<path d="" fill="#78AFD1" transform="translate(0,0)"/>
<path d="" fill="#7AB4D9" transform="translate(0,0)"/>
<path d="" fill="#76AFD3" transform="translate(0,0)"/>
<path d="" fill="#78B4DA" transform="translate(0,0)"/>
<path d="" fill="#77B2D3" transform="translate(0,0)"/>
<path d="" fill="#7AB3D8" transform="translate(0,0)"/>
<path d="" fill="#74AED0" transform="translate(0,0)"/>
<path d="" fill="#78B4D9" transform="translate(0,0)"/>
<path d="" fill="#76B1D9" transform="translate(0,0)"/>
<path d="" fill="#77B4D4" transform="translate(0,0)"/>
<path d="" fill="#77B2D8" transform="translate(0,0)"/>
<path d="" fill="#76B3D6" transform="translate(0,0)"/>
<path d="" fill="#76B3D9" transform="translate(0,0)"/>
<path d="" fill="#74B1D5" transform="translate(0,0)"/>
<path d="" fill="#7BB6DA" transform="translate(0,0)"/>
<path d="" fill="#74ABD0" transform="translate(0,0)"/>
<path d="" fill="#73AED3" transform="translate(0,0)"/>
<path d="" fill="#79B1D5" transform="translate(0,0)"/>
<path d="" fill="#7AB3D9" transform="translate(0,0)"/>
<path d="" fill="#76B2D4" transform="translate(0,0)"/>
<path d="" fill="#7BB9DD" transform="translate(0,0)"/>
<path d="" fill="#7AB4DA" transform="translate(0,0)"/>
<path d="" fill="#78B4D8" transform="translate(0,0)"/>
<path d="" fill="#78B5DC" transform="translate(0,0)"/>
<path d="" fill="#79B7DB" transform="translate(0,0)"/>
<path d="" fill="#77B2D6" transform="translate(0,0)"/>
<path d="" fill="#77B3D7" transform="translate(0,0)"/>
<path d="" fill="#78B3D6" transform="translate(0,0)"/>
<path d="" fill="#77B1D6" transform="translate(0,0)"/>
<path d="" fill="#79B4D7" transform="translate(0,0)"/>
<path d="" fill="#7AB7DA" transform="translate(0,0)"/>
<path d="" fill="#77B0D3" transform="translate(0,0)"/>
<path d="" fill="#73ACCD" transform="translate(0,0)"/>
<path d="" fill="#77B1D6" transform="translate(0,0)"/>
<path d="" fill="#7AB1D9" transform="translate(0,0)"/>
<path d="" fill="#78B7DA" transform="translate(0,0)"/>
<path d="" fill="#77AFD0" transform="translate(0,0)"/>
<path d="" fill="#74B2D7" transform="translate(0,0)"/>
<path d="" fill="#75ADD2" transform="translate(0,0)"/>
<path d="" fill="#74AACD" transform="translate(0,0)"/>
<path d="" fill="#74ADCF" transform="translate(0,0)"/>
<path d="" fill="#75A6C6" transform="translate(0,0)"/>
<path d="" fill="#72A2C0" transform="translate(0,0)"/>
<path d="" fill="#73A5C3" transform="translate(0,0)"/>
<path d="" fill="#75ACCA" transform="translate(0,0)"/>
<path d="" fill="#72A6C6" transform="translate(0,0)"/>
</svg>
